# xmcd
#
# Track frame offsets:
#	150
#	16927
#	31967
#	47075
#	60002
#	76515
#	92277
#	106440
#	121777
#	139287
#	158270
#	175917
#	187370
#	203304
#	218546
#	236419
#
# Disc length: 3386
#
# Revision: 1
# Processed by: cddbd v1.5.1PL0 Copyright (c) Steve Scherf et al.
# Submitted via: dBpowerAMP V4.0
# Normalized: r0:TRMNUM
#
DISCID=b40d3810
DTITLE=COLLO DE Menina - volume 2
DYEAR=1900
DGENRE=
TTITLE0=cuida de mim
TTITLE1=ela chorou de amor
TTITLE2=sozinha e distante
TTITLE3=volta pra mim
TTITLE4=passou da conta 
TTITLE5=amor verdadeiro
TTITLE6=preciso de você
TTITLE7=onde andará v.- garota
TTITLE8=fogo cruzado
TTITLE9=todinha
TTITLE10=dança do thaca thaca
TTITLE11=só vai dar eu e você
TTITLE12=quero ter você comigo
TTITLE13=despedida
TTITLE14=não vai mais voltar
TTITLE15=meu anjo
EXTD=
EXTT0=
EXTT1=
EXTT2=
EXTT3=
EXTT4=
EXTT5=
EXTT6=
EXTT7=
EXTT8=
EXTT9=
EXTT10=
EXTT11=
EXTT12=
EXTT13=
EXTT14=
EXTT15=
PLAYORDER=
